2.6Hz3min_grf.mot
version=1
nRows=22
nColumns 19
inDegrees=yes
endheader
time	1_ground_force_vx	1_ground_force_vy	1_ground_force_vz	1_ground_force_px	1_ground_force_py	1_ground_force_pz	1_ground_torque_x	1_ground_torque_y	1_ground_torque_z	2_ground_force_vx	2_ground_force_vy	2_ground_force_vz	2_ground_force_px	2_ground_force_py	2_ground_force_pz	2_ground_torque_x	2_ground_torque_y	2_ground_torque_z
            1.253500	           13.176307	          227.190588	          -11.485901	           -0.248443	            0.006257	           -0.413836	           -0.046218	           -0.796900	            0.040288	           12.207882	          161.180826	           -0.791428	           -0.257278	            0.005530	           -0.690672	            0.007977	            0.105326	           -0.000517
            1.254000	           13.174864	          232.599345	          -11.646136	           -0.248792	            0.006255	           -0.413533	           -0.038674	           -0.682782	            0.034187	           11.684661	          163.387908	           -0.548683	           -0.256018	            0.005533	           -0.690435	            0.005987	            0.083715	           -0.000281
            1.254500	           12.851744	          236.027083	          -12.272636	           -0.249135	            0.006258	           -0.414067	           -0.042312	           -0.777084	            0.040406	           11.484860	          166.884216	           -0.019910	           -0.256425	            0.005536	           -0.691634	            0.006477	            0.094120	           -0.000011
            1.255000	           11.838927	          240.719694	          -13.625713	           -0.248995	            0.006255	           -0.413423	           -0.048254	           -0.981153	            0.055537	           11.103826	          168.720983	            0.925382	           -0.256387	            0.005537	           -0.691764	            0.002083	            0.031650	            0.000174
            1.255500	           10.596605	          244.511719	          -15.165510	           -0.248805	            0.006258	           -0.414165	           -0.049361	           -1.138972	            0.070643	           10.954965	          171.111719	            1.684833	           -0.256489	            0.005533	           -0.690687	            0.000127	            0.001983	            0.000020
            1.256000	            9.998751	          248.659680	          -15.604812	           -0.249271	            0.006256	           -0.413771	           -0.047690	           -1.186003	            0.074428	           10.659532	          175.159639	            2.356401	           -0.255822	            0.005541	           -0.692379	            0.001105	            0.018158	            0.000244
            1.256500	            9.492841	          253.888467	          -15.856280	           -0.249165	            0.006257	           -0.413930	           -0.042692	           -1.141803	            0.071310	           10.653653	          176.816129	            2.596955	           -0.255601	            0.005539	           -0.691577	            0.001380	            0.022908	            0.000336
            1.257000	            9.676561	          258.212913	          -15.379625	           -0.249050	            0.006257	           -0.413866	           -0.038597	           -1.029930	            0.061344	           10.033827	          179.761475	            2.279230	           -0.255644	            0.005539	           -0.691674	            0.007647	            0.137007	            0.001737
            1.257500	            9.997194	          262.178033	          -15.179992	           -0.249374	            0.006257	           -0.413997	           -0.035070	           -0.919713	            0.053251	            9.650449	          182.153540	            2.428716	           -0.255439	            0.005540	           -0.691588	            0.006370	            0.120231	            0.001603
            1.258000	           10.592441	          267.946060	          -15.019169	           -0.249349	            0.006257	           -0.413848	           -0.036066	           -0.912324	            0.051138	            9.453183	          184.914259	            2.673292	           -0.255499	            0.005541	           -0.691997	            0.004052	            0.079252	            0.001146
            1.258500	           10.542441	          272.638660	          -16.328780	           -0.249937	            0.006257	           -0.413877	           -0.037550	           -0.971077	            0.058159	            9.256122	          187.673304	            3.387149	           -0.255159	            0.005543	           -0.692180	            0.004080	            0.082723	            0.001493
            1.259000	            9.805170	          277.150302	          -17.499889	           -0.249412	            0.006256	           -0.413784	           -0.038163	           -1.078715	            0.068112	            8.869628	          190.984430	            4.009201	           -0.255749	            0.005543	           -0.692967	            0.003280	            0.070617	            0.001482
            1.259500	            9.068664	          281.840804	          -18.349234	           -0.249634	            0.006256	           -0.413611	           -0.039409	           -1.224768	            0.079738	            8.862522	          193.008395	            4.485710	           -0.255311	            0.005545	           -0.692878	            0.004943	            0.107658	            0.002502
            1.260000	            8.653418	          285.809911	          -19.110755	           -0.249997	            0.006255	           -0.413485	           -0.036252	           -1.197337	            0.080060	            8.577579	          194.111114	            4.818268	           -0.255382	            0.005541	           -0.691824	            0.007815	            0.176856	            0.004390
            1.260500	            8.331401	          290.677385	          -19.180800	           -0.249959	            0.006255	           -0.413615	           -0.034399	           -1.200149	            0.079194	            8.468655	          198.345662	            4.974205	           -0.255081	            0.005546	           -0.693049	            0.008515	            0.199428	            0.005001
            1.261000	            9.063659	          295.545320	          -19.299318	           -0.249877	            0.006255	           -0.413437	           -0.034403	           -1.121793	            0.073254	            8.036290	          201.291182	            4.797185	           -0.254654	            0.005549	           -0.693335	            0.008405	            0.210532	            0.005017
            1.261500	            9.980834	          300.050143	          -18.823711	           -0.250047	            0.006254	           -0.413313	           -0.036351	           -1.092794	            0.068557	            7.603342	          204.420204	            4.808534	           -0.254770	            0.005549	           -0.693652	            0.007299	            0.196241	            0.004616
            1.262000	           10.253119	          304.019580	          -19.632795	           -0.250608	            0.006256	           -0.413774	           -0.037485	           -1.111496	            0.071778	            7.547331	          206.996925	            5.146249	           -0.254850	            0.005551	           -0.694044	            0.005507	            0.151030	            0.003755
            1.262500	           10.433942	          309.250102	          -20.252817	           -0.250549	            0.006254	           -0.413370	           -0.039141	           -1.160093	            0.075975	            7.123168	          207.730824	            5.477554	           -0.254960	            0.005546	           -0.692990	            0.007613	            0.222017	            0.005854
            1.263000	           10.522190	          312.499817	          -21.385529	           -0.250668	            0.006255	           -0.413502	           -0.038708	           -1.149586	            0.078670	            7.158198	          211.044507	            5.817858	           -0.254694	            0.005551	           -0.693954	            0.007359	            0.216953	            0.005981
            1.263500	            9.647423	          316.831137	          -22.557070	           -0.250939	            0.006255	           -0.413509	           -0.037822	           -1.242121	            0.088434	            7.147811	          213.988872	            6.391508	           -0.254741	            0.005550	           -0.693682	            0.007691	            0.230244	            0.006877
            1.264000	            9.460955	          320.080209	          -23.551531	           -0.251036	            0.006256	           -0.413737	           -0.037463	           -1.267437	            0.093258	            6.909074	          215.275702	            6.771632	           -0.255049	            0.005546	           -0.692946	            0.008233	            0.256537	            0.008070
